<?xml version="1.0" encoding="UTF-8"?><!DOCTYPE svg PUBLIC "-//W3C//DTD SVG 1.1//EN" "http://www.w3.org/Graphics/SVG/1.1/DTD/svg11.dtd"><svg xmlns="http://www.w3.org/2000/svg"><symbol id="logo-colours" viewBox="0 0 77 77"><title>colours-logo</title><g fill="none"><path fill="#000" d="M-1 77.8h79.2V-1H-1"/><path d="M14.6 33.4c-.3-1.3-.9-2.4-2.5-2.4-2.8 0-3 3.2-3 5.7 0 3.2 1 5.2 3.6 5.2 1.3 0 2.3-.4 3.3-1l.4 1.8c-.7.5-2.2 1-4.1 1-4.5 0-5.5-3.6-5.5-7.1 0-3.7 1-7.3 5.2-7.3 3.2 0 4.1 1.9 4.5 3.6-.5.2-1.2.4-1.9.5m9.3 5c0-1.7-.3-3.6-2-3.6-1.8 0-2.2 2.2-2.2 3.7 0 1.9.4 3.6 2.1 3.6 1.7 0 2.1-1.9 2.1-3.7m-6.3.1c0-3 1.3-5.4 4.3-5.4 3.2 0 4.1 2.5 4.1 5.2s-1.1 5.5-4.3 5.5c-3.2 0-4.1-2.8-4.1-5.3m10.7-8.8h2.1v10.9c0 1 .3 1.4 1 1.4.4 0 .9-.2 1.5-.4l.3 1.6c-.6.3-1.5.5-2.2.5-2 0-2.6-1.1-2.6-2.9V29.7h-.1zm12.1 8.7c0-1.7-.3-3.6-2-3.6-1.8 0-2.2 2.2-2.2 3.7 0 1.9.4 3.6 2.1 3.6 1.7 0 2.1-1.9 2.1-3.7m-6.3.1c0-3 1.3-5.4 4.3-5.4 3.2 0 4.1 2.5 4.1 5.2s-1.1 5.5-4.3 5.5c-3.2 0-4.1-2.8-4.1-5.3m16.8 3.9c-.9.7-1.9 1.3-3.2 1.3-1.7 0-2.6-.8-2.8-2.1-.1-.3-.1-.9-.1-1.3v-6.8l2.1-.3V40c0 .5 0 .7.1.9.1.7.6 1 1.4 1 .9 0 1.7-.5 2.4-1.1v-7.6h2.1v10.3H51l-.1-1.1zm11.5-7.8l-1.5 1.1c-.3-.6-.6-.8-1.1-.8-.7 0-1.3.4-2.1 1.2v7.5h-2.1V33.3h1.8l.1 1.1c.6-.6 1.6-1.3 2.6-1.3 1.2 0 1.8.5 2.3 1.5m1.2 6.3c.6.5 1.9 1.2 2.9 1.2s1.7-.4 1.7-1.3c0-1-.9-1.3-2-1.7H66c-1.3-.4-2.8-.9-2.8-3 0-2 1.6-3 3.6-3 2.3 0 3.3 1.3 3.5 2.4l-1.6.6c-.3-1-1.1-1.4-1.9-1.4-.9 0-1.6.4-1.6 1.3 0 1 1 1.4 2.1 1.7l.2.1c1.3.4 2.7 1 2.7 2.9 0 1.8-1.3 3.1-3.7 3.1-1.5 0-3-.7-3.5-1.1l.6-1.8z" fill="#FEFEFE"/></g></symbol><symbol id="icon-arrow-right-boxed" viewBox="0 0 56 39"><title>ICON - Arrow down</title><g transform="matrix(0 1 1 0 0 2)" fill="none" fill-rule="evenodd"><path d="M23.756 32.146l-4.356 4.44V1.936C19.4.869 18.55 0 17.5 0c-1.05 0-1.9.868-1.9 1.937v34.65l-4.356-4.441a1.872 1.872 0 0 0-2.687 0 1.961 1.961 0 0 0 0 2.738L17.5 44l8.943-9.116a1.961 1.961 0 0 0 0-2.738 1.872 1.872 0 0 0-2.687 0z" fill="#161616" fill-rule="nonzero"/><circle stroke="#161616" stroke-width="3" cx="17.5" cy="36.5" r="17.5"/></g></symbol><symbol id="icon-arrow-right-clean" viewBox="0 0 22 35"><title>Group 2</title><path d="M4.022 2L2 4.068 15.838 17.44 2 30.811l2.021 2.07L20 17.442z" stroke-width="2" fill-rule="nonzero"/></symbol><symbol id="icon-arrow-right" viewBox="0 0 26 15"><path d="M16.58 12.11l3.34-3.21H1.958C1.153 8.9.5 8.274.5 7.5c0-.774.653-1.4 1.457-1.4H19.92l-3.34-3.21a1.36 1.36 0 0 1 0-1.98 1.498 1.498 0 0 1 2.06 0L25.5 7.5l-6.86 6.59c-.57.547-1.49.547-2.06 0a1.36 1.36 0 0 1 0-1.98z"/></symbol><symbol id="icon-close" viewBox="0 0 357 357"><path d="M357 35.7L321.3 0 178.5 142.8 35.7 0 0 35.7l142.8 142.8L0 321.3 35.7 357l142.8-142.8L321.3 357l35.7-35.7-142.8-142.8z"/></symbol><symbol id="icon-facebook" viewBox="0 0 29 29"><title>ICON - Facebook</title><path d="M25.092 0H3.908A3.908 3.908 0 0 0 0 3.908v21.184A3.908 3.908 0 0 0 3.908 29h10.448l.018-10.363H11.68a.635.635 0 0 1-.635-.633l-.013-3.34a.635.635 0 0 1 .635-.638h2.688v-3.228c0-3.745 2.287-5.785 5.629-5.785h2.742c.35 0 .635.284.635.635v2.817c0 .35-.284.635-.635.635l-1.683.001c-1.817 0-2.169.864-2.169 2.13v2.795h3.993c.38 0 .676.332.631.71l-.396 3.34a.635.635 0 0 1-.63.561h-3.58L18.875 29h6.217A3.908 3.908 0 0 0 29 25.092V3.908A3.908 3.908 0 0 0 25.092 0z"/></symbol><symbol id="icon-home" viewBox="0 0 41 37"><title>Group</title><path d="M38.776 15.978C32.612 10.79 21.419 1.122 21.309 1.024L20.118 0l-1.186 1.024c-.113.096-11.31 9.76-17.563 14.996-.797.716-1.251 1.718-1.251 2.744A3.638 3.638 0 0 0 3.754 22.4h1.818v10.91a3.638 3.638 0 0 0 3.637 3.635h21.818a3.638 3.638 0 0 0 3.636-3.636V22.4h1.818a3.638 3.638 0 0 0 3.637-3.636c0-1.088-.5-2.111-1.342-2.786zM23.754 33.31h-7.273v-9.09h7.273v9.09zm7.273-14.545l.003 14.545h-5.458V22.4H14.663v10.91H9.21V18.763H3.752C8.78 14.56 17.052 7.442 20.118 4.8c3.065 2.642 11.334 9.758 16.363 13.965l-5.454-.001z" fill-rule="nonzero"/></symbol><symbol id="icon-instagram" viewBox="0 0 29 29"><title>ICON - Insta</title><path d="M20.325 0h-11.7C3.868 0 0 3.869 0 8.624v11.701c0 4.755 3.869 8.624 8.624 8.624h11.701c4.755 0 8.624-3.869 8.624-8.624v-11.7C28.95 3.868 25.08 0 20.325 0zm5.712 20.325a5.712 5.712 0 0 1-5.712 5.712h-11.7a5.712 5.712 0 0 1-5.713-5.712v-11.7a5.712 5.712 0 0 1 5.712-5.713h11.701a5.712 5.712 0 0 1 5.712 5.712v11.701z"/><path d="M14.475 6.987c-4.129 0-7.488 3.36-7.488 7.488s3.36 7.487 7.488 7.487 7.487-3.359 7.487-7.487c0-4.129-3.359-7.488-7.487-7.488zm0 12.063a4.575 4.575 0 1 1 0-9.15 4.575 4.575 0 0 1 0 9.15z"/><circle cx="21.976" cy="7.044" r="1.794"/></symbol><symbol id="icon-linkedin" viewBox="0 0 29 29"><title>ICON - LinkedIn</title><path d="M26.377 0H2.623A2.623 2.623 0 0 0 0 2.623v23.754A2.623 2.623 0 0 0 2.623 29h23.754A2.623 2.623 0 0 0 29 26.377V2.623A2.623 2.623 0 0 0 26.377 0zM8.974 25.04a.763.763 0 0 1-.764.764H4.96a.763.763 0 0 1-.763-.763V11.418c0-.422.342-.763.764-.763h3.25c.421 0 .763.341.763.763v13.623zM6.586 9.37a3.087 3.087 0 1 1 0-6.174 3.087 3.087 0 0 1 0 6.174zm19.37 15.732a.702.702 0 0 1-.701.702h-3.488a.702.702 0 0 1-.701-.702v-6.39c0-.953.28-4.177-2.492-4.177-2.149 0-2.585 2.207-2.672 3.197v7.37a.702.702 0 0 1-.702.702h-3.373a.702.702 0 0 1-.702-.702V11.357c0-.388.315-.702.702-.702H15.2c.388 0 .702.314.702.702v1.188c.797-1.196 1.981-2.119 4.503-2.119 5.583 0 5.552 5.217 5.552 8.083v6.593z"/></symbol><symbol id="icon-mail" viewBox="0 0 44 44"><title>Group</title><path d="M42.752.22a1.346 1.346 0 0 0-1.488.01L.603 27.67c-.419.281-.65.777-.595 1.284.051.507.377.944.844 1.13l10.605 4.296 4.986 8.833c.238.424.682.686 1.161.692h.015c.476 0 .918-.255 1.162-.667l2.815-4.751 13.14 5.319a1.331 1.331 0 0 0 1.167-.08c.358-.203.603-.56.672-.97l6.777-41.159a1.382 1.382 0 0 0-.6-1.377zM4.25 28.506L35.66 7.307 12.823 32.054c-.12-.073-.228-.17-.36-.223L4.25 28.506zm9.56 4.512c-.003-.005-.007-.008-.01-.014L39.474 5.187 17.587 39.71l-3.778-6.69zm20.368 7.605l-11.576-4.687a2.664 2.664 0 0 0-.845-.163L39.583 7.801l-5.405 32.822z" fill-rule="nonzero"/></symbol><symbol id="icon-phone" viewBox="0 0 34 49"><title>Group 2</title><path d="M15.455 43.635c0-.425.346-.766.772-.766h1.546a.77.77 0 0 1 .772.766.771.771 0 0 1-.772.765h-1.546a.77.77 0 0 1-.772-.765zm3.863-39.041h-4.636a.768.768 0 0 0-.773.765c0 .423.345.766.773.766h4.636a.77.77 0 0 0 .773-.766.77.77 0 0 0-.773-.765zm14.682 0v39.812C34 46.942 31.923 49 29.364 49H4.636C2.076 49 0 46.945 0 44.406V4.594C0 2.056 2.074 0 4.636 0h24.728C31.923 0 34 2.055 34 4.594zm-3.09 36.744H3.09v3.068c0 .847.693 1.532 1.546 1.532h24.728a1.54 1.54 0 0 0 1.545-1.532v-3.068zm0-32.15H3.09v30.618h27.82V9.188zm0-4.594a1.54 1.54 0 0 0-1.546-1.532H4.636c-.853 0-1.545.687-1.545 1.532v3.062h27.818V4.594z" fill-rule="nonzero"/></symbol><symbol id="icon-play" viewBox="0 0 15 20"><title>Group</title><path d="M14.755 9.6L.597.096C.434-.017.293-.03.176.056.059.142 0 .296 0 .52v18.96c0 .223.059.378.176.464.117.086.258.073.421-.039L14.755 10.4c.163-.111.245-.245.245-.4 0-.154-.082-.287-.245-.398z" fill-rule="evenodd"/></symbol><symbol id="icon-twitter" viewBox="0 0 30 25"><title>ICON - Twitter</title><path d="M29.523 2.903a11.88 11.88 0 0 1-2.069.698A6.45 6.45 0 0 0 29.157.889a.338.338 0 0 0-.495-.394A11.936 11.936 0 0 1 25.5 1.802a.838.838 0 0 1-.751-.187A6.468 6.468 0 0 0 20.468 0c-.683 0-1.372.106-2.049.316a6.266 6.266 0 0 0-4.223 4.515 6.9 6.9 0 0 0-.153 2.382.24.24 0 0 1-.26.261c-4.59-.427-8.73-2.638-11.656-6.228a.338.338 0 0 0-.555.044 6.462 6.462 0 0 0-.874 3.25 6.46 6.46 0 0 0 1.928 4.61 5.796 5.796 0 0 1-1.476-.57.338.338 0 0 0-.502.291 6.476 6.476 0 0 0 3.778 5.966 5.791 5.791 0 0 1-1.228-.102.338.338 0 0 0-.386.435 6.482 6.482 0 0 0 5.12 4.41 11.935 11.935 0 0 1-6.684 2.03H.5c-.23 0-.426.15-.484.373a.512.512 0 0 0 .245.566 17.752 17.752 0 0 0 8.92 2.405c2.742 0 5.307-.544 7.623-1.617 2.124-.983 4-2.39 5.578-4.18a18.324 18.324 0 0 0 3.415-5.719c.76-2.029 1.16-4.194 1.16-6.26v-.099c0-.332.15-.644.412-.856A12.784 12.784 0 0 0 29.941 3.4a.338.338 0 0 0-.418-.497z"/></symbol></svg>